%TF.GenerationSoftware,KiCad,Pcbnew,9.0.0*%
%TF.CreationDate,2025-04-06T18:56:11+05:30*%
%TF.ProjectId,FTDI-UPDI-CH340-Type-c,46544449-2d55-4504-9449-2d4348333430,rev?*%
%TF.SameCoordinates,Original*%
%TF.FileFunction,Soldermask,Top*%
%TF.FilePolarity,Negative*%
%FSLAX46Y46*%
G04 Gerber Fmt 4.6, Leading zero omitted, Abs format (unit mm)*
G04 Created by KiCad (PCBNEW 9.0.0) date 2025-04-06 18:56:11*
%MOMM*%
%LPD*%
G01*
G04 APERTURE LIST*
G04 Aperture macros list*
%AMRoundRect*
0 Rectangle with rounded corners*
0 $1 Rounding radius*
0 $2 $3 $4 $5 $6 $7 $8 $9 X,Y pos of 4 corners*
0 Add a 4 corners polygon primitive as box body*
4,1,4,$2,$3,$4,$5,$6,$7,$8,$9,$2,$3,0*
0 Add four circle primitives for the rounded corners*
1,1,$1+$1,$2,$3*
1,1,$1+$1,$4,$5*
1,1,$1+$1,$6,$7*
1,1,$1+$1,$8,$9*
0 Add four rect primitives between the rounded corners*
20,1,$1+$1,$2,$3,$4,$5,0*
20,1,$1+$1,$4,$5,$6,$7,0*
20,1,$1+$1,$6,$7,$8,$9,0*
20,1,$1+$1,$8,$9,$2,$3,0*%
%AMFreePoly0*
4,1,23,0.500000,-0.750000,0.000000,-0.750000,0.000000,-0.745722,-0.065263,-0.745722,-0.191342,-0.711940,-0.304381,-0.646677,-0.396677,-0.554381,-0.461940,-0.441342,-0.495722,-0.315263,-0.495722,-0.250000,-0.500000,-0.250000,-0.500000,0.250000,-0.495722,0.250000,-0.495722,0.315263,-0.461940,0.441342,-0.396677,0.554381,-0.304381,0.646677,-0.191342,0.711940,-0.065263,0.745722,0.000000,0.745722,
0.000000,0.750000,0.500000,0.750000,0.500000,-0.750000,0.500000,-0.750000,$1*%
%AMFreePoly1*
4,1,23,0.000000,0.745722,0.065263,0.745722,0.191342,0.711940,0.304381,0.646677,0.396677,0.554381,0.461940,0.441342,0.495722,0.315263,0.495722,0.250000,0.500000,0.250000,0.500000,-0.250000,0.495722,-0.250000,0.495722,-0.315263,0.461940,-0.441342,0.396677,-0.554381,0.304381,-0.646677,0.191342,-0.711940,0.065263,-0.745722,0.000000,-0.745722,0.000000,-0.750000,-0.500000,-0.750000,
-0.500000,0.750000,0.000000,0.750000,0.000000,0.745722,0.000000,0.745722,$1*%
G04 Aperture macros list end*
%ADD10R,2.000000X1.000000*%
%ADD11R,1.700000X1.400000*%
%ADD12R,1.400000X1.700000*%
%ADD13RoundRect,0.102000X0.600000X1.250000X-0.600000X1.250000X-0.600000X-1.250000X0.600000X-1.250000X0*%
%ADD14R,1.900000X1.400000*%
%ADD15R,3.200000X1.600000*%
%ADD16R,1.600000X2.000000*%
%ADD17R,1.600000X3.200000*%
%ADD18R,0.700000X1.000000*%
%ADD19R,1.500000X2.000000*%
%ADD20C,1.050000*%
%ADD21R,1.000000X1.200000*%
%ADD22RoundRect,0.150000X-0.150000X0.825000X-0.150000X-0.825000X0.150000X-0.825000X0.150000X0.825000X0*%
%ADD23FreePoly0,0.000000*%
%ADD24FreePoly1,0.000000*%
G04 APERTURE END LIST*
%TO.C,JP2*%
G36*
X152314148Y-102760605D02*
G01*
X152614148Y-102760605D01*
X152614148Y-104260605D01*
X152314148Y-104260605D01*
X152314148Y-102760605D01*
G37*
%TD*%
D10*
%TO.C,J2*%
X161354148Y-90175605D03*
X161354148Y-92715605D03*
X161354148Y-95255605D03*
X161354148Y-97795605D03*
X161354148Y-100335605D03*
X161354148Y-102875605D03*
%TD*%
D11*
%TO.C,C1*%
X137449528Y-103997945D03*
X137449528Y-107397945D03*
%TD*%
D12*
%TO.C,C2*%
X137036467Y-92899194D03*
X140436467Y-92899194D03*
%TD*%
%TO.C,R3*%
X131258966Y-107019280D03*
X127858966Y-107019280D03*
%TD*%
%TO.C,R1*%
X138464115Y-89889293D03*
X141864115Y-89889293D03*
%TD*%
D13*
%TO.C,SW2*%
X150493590Y-93158767D03*
X147993590Y-93158767D03*
X145493590Y-93158767D03*
X145493590Y-98658767D03*
X147993590Y-98658767D03*
X150493590Y-98658767D03*
%TD*%
D14*
%TO.C,D5*%
X154075790Y-94648133D03*
X154075790Y-97948133D03*
%TD*%
D15*
%TO.C,J1*%
X126795091Y-99685605D03*
X126795091Y-97145605D03*
X126795091Y-94605605D03*
X126795091Y-92065605D03*
D16*
X123782214Y-102342302D03*
D17*
X113964851Y-102239403D03*
X113961026Y-89549639D03*
D16*
X123772591Y-89538799D03*
%TD*%
D18*
%TO.C,U2*%
X132997631Y-89610605D03*
X131097631Y-89610605D03*
X132047631Y-92010605D03*
%TD*%
D12*
%TO.C,D1*%
X147179148Y-90516950D03*
X143779148Y-90516950D03*
%TD*%
D19*
%TO.C,D3*%
X130984641Y-103632261D03*
X127684641Y-103632261D03*
%TD*%
D12*
%TO.C,R2*%
X138508163Y-87466645D03*
X141908163Y-87466645D03*
%TD*%
D20*
%TO.C,SW1*%
X141097802Y-106854511D03*
X144097802Y-106854511D03*
D21*
X140097802Y-104254511D03*
X142597802Y-104254511D03*
X145097802Y-104254511D03*
%TD*%
D12*
%TO.C,C4*%
X129245034Y-87774927D03*
X125845034Y-87774927D03*
%TD*%
D11*
%TO.C,JP1*%
X156909148Y-94415605D03*
X156909148Y-91015605D03*
%TD*%
%TO.C,D4*%
X134844304Y-107397945D03*
X134844304Y-103997945D03*
%TD*%
%TO.C,R4*%
X156909148Y-98435605D03*
X156909148Y-102035605D03*
%TD*%
D22*
%TO.C,U1*%
X140335000Y-95545001D03*
X139065000Y-95545001D03*
X137795000Y-95545001D03*
X136525000Y-95545001D03*
X135255000Y-95545001D03*
X133985000Y-95545001D03*
X132715000Y-95545001D03*
X131445000Y-95545001D03*
X131445000Y-100495001D03*
X132715000Y-100495001D03*
X133985000Y-100495001D03*
X135255000Y-100495001D03*
X136525000Y-100495001D03*
X137795000Y-100495001D03*
X139065000Y-100495001D03*
X140335000Y-100495001D03*
%TD*%
D23*
%TO.C,JP2*%
X151814148Y-103510605D03*
D24*
X153214148Y-103510605D03*
%TD*%
D11*
%TO.C,C3*%
X134996347Y-89172870D03*
X134996347Y-92572870D03*
%TD*%
D12*
%TO.C,D2*%
X147193611Y-88285287D03*
X143793611Y-88285287D03*
%TD*%
M02*
