%TF.GenerationSoftware,KiCad,Pcbnew,9.0.0*%
%TF.CreationDate,2025-04-06T18:56:11+05:30*%
%TF.ProjectId,FTDI-UPDI-CH340-Type-c,46544449-2d55-4504-9449-2d4348333430,rev?*%
%TF.SameCoordinates,Original*%
%TF.FileFunction,Copper,L1,Top*%
%TF.FilePolarity,Positive*%
%FSLAX46Y46*%
G04 Gerber Fmt 4.6, Leading zero omitted, Abs format (unit mm)*
G04 Created by KiCad (PCBNEW 9.0.0) date 2025-04-06 18:56:11*
%MOMM*%
%LPD*%
G01*
G04 APERTURE LIST*
G04 Aperture macros list*
%AMRoundRect*
0 Rectangle with rounded corners*
0 $1 Rounding radius*
0 $2 $3 $4 $5 $6 $7 $8 $9 X,Y pos of 4 corners*
0 Add a 4 corners polygon primitive as box body*
4,1,4,$2,$3,$4,$5,$6,$7,$8,$9,$2,$3,0*
0 Add four circle primitives for the rounded corners*
1,1,$1+$1,$2,$3*
1,1,$1+$1,$4,$5*
1,1,$1+$1,$6,$7*
1,1,$1+$1,$8,$9*
0 Add four rect primitives between the rounded corners*
20,1,$1+$1,$2,$3,$4,$5,0*
20,1,$1+$1,$4,$5,$6,$7,0*
20,1,$1+$1,$6,$7,$8,$9,0*
20,1,$1+$1,$8,$9,$2,$3,0*%
%AMFreePoly0*
4,1,23,0.500000,-0.750000,0.000000,-0.750000,0.000000,-0.745722,-0.065263,-0.745722,-0.191342,-0.711940,-0.304381,-0.646677,-0.396677,-0.554381,-0.461940,-0.441342,-0.495722,-0.315263,-0.495722,-0.250000,-0.500000,-0.250000,-0.500000,0.250000,-0.495722,0.250000,-0.495722,0.315263,-0.461940,0.441342,-0.396677,0.554381,-0.304381,0.646677,-0.191342,0.711940,-0.065263,0.745722,0.000000,0.745722,
0.000000,0.750000,0.500000,0.750000,0.500000,-0.750000,0.500000,-0.750000,$1*%
%AMFreePoly1*
4,1,23,0.000000,0.745722,0.065263,0.745722,0.191342,0.711940,0.304381,0.646677,0.396677,0.554381,0.461940,0.441342,0.495722,0.315263,0.495722,0.250000,0.500000,0.250000,0.500000,-0.250000,0.495722,-0.250000,0.495722,-0.315263,0.461940,-0.441342,0.396677,-0.554381,0.304381,-0.646677,0.191342,-0.711940,0.065263,-0.745722,0.000000,-0.745722,0.000000,-0.750000,-0.500000,-0.750000,
-0.500000,0.750000,0.000000,0.750000,0.000000,0.745722,0.000000,0.745722,$1*%
G04 Aperture macros list end*
%ADD10C,0.300000*%
%TA.AperFunction,NonConductor*%
%ADD11C,0.300000*%
%TD*%
%TA.AperFunction,SMDPad,CuDef*%
%ADD12R,2.000000X1.000000*%
%TD*%
%TA.AperFunction,SMDPad,CuDef*%
%ADD13R,1.700000X1.400000*%
%TD*%
%TA.AperFunction,SMDPad,CuDef*%
%ADD14R,1.400000X1.700000*%
%TD*%
%TA.AperFunction,SMDPad,CuDef*%
%ADD15R,1.200000X2.500000*%
%TD*%
%TA.AperFunction,SMDPad,CuDef*%
%ADD16R,1.900000X1.400000*%
%TD*%
%TA.AperFunction,SMDPad,CuDef*%
%ADD17R,3.200000X1.600000*%
%TD*%
%TA.AperFunction,SMDPad,CuDef*%
%ADD18R,1.600000X2.000000*%
%TD*%
%TA.AperFunction,SMDPad,CuDef*%
%ADD19R,1.600000X3.200000*%
%TD*%
%TA.AperFunction,SMDPad,CuDef*%
%ADD20R,0.700000X1.000000*%
%TD*%
%TA.AperFunction,SMDPad,CuDef*%
%ADD21R,1.500000X2.000000*%
%TD*%
%TA.AperFunction,ComponentPad*%
%ADD22C,1.050000*%
%TD*%
%TA.AperFunction,SMDPad,CuDef*%
%ADD23R,1.000000X1.200000*%
%TD*%
%TA.AperFunction,SMDPad,CuDef*%
%ADD24RoundRect,0.150000X-0.150000X0.825000X-0.150000X-0.825000X0.150000X-0.825000X0.150000X0.825000X0*%
%TD*%
%TA.AperFunction,SMDPad,CuDef*%
%ADD25FreePoly0,0.000000*%
%TD*%
%TA.AperFunction,SMDPad,CuDef*%
%ADD26FreePoly1,0.000000*%
%TD*%
%TA.AperFunction,Conductor*%
%ADD27C,0.400000*%
%TD*%
G04 APERTURE END LIST*
D10*
D11*
X114580755Y-85805501D02*
X114580755Y-84305501D01*
X114580755Y-84305501D02*
X115152184Y-84305501D01*
X115152184Y-84305501D02*
X115295041Y-84376930D01*
X115295041Y-84376930D02*
X115366470Y-84448358D01*
X115366470Y-84448358D02*
X115437898Y-84591215D01*
X115437898Y-84591215D02*
X115437898Y-84805501D01*
X115437898Y-84805501D02*
X115366470Y-84948358D01*
X115366470Y-84948358D02*
X115295041Y-85019787D01*
X115295041Y-85019787D02*
X115152184Y-85091215D01*
X115152184Y-85091215D02*
X114580755Y-85091215D01*
X116080755Y-85805501D02*
X116080755Y-84805501D01*
X116080755Y-85091215D02*
X116152184Y-84948358D01*
X116152184Y-84948358D02*
X116223613Y-84876930D01*
X116223613Y-84876930D02*
X116366470Y-84805501D01*
X116366470Y-84805501D02*
X116509327Y-84805501D01*
X117223612Y-85805501D02*
X117080755Y-85734073D01*
X117080755Y-85734073D02*
X117009326Y-85662644D01*
X117009326Y-85662644D02*
X116937898Y-85519787D01*
X116937898Y-85519787D02*
X116937898Y-85091215D01*
X116937898Y-85091215D02*
X117009326Y-84948358D01*
X117009326Y-84948358D02*
X117080755Y-84876930D01*
X117080755Y-84876930D02*
X117223612Y-84805501D01*
X117223612Y-84805501D02*
X117437898Y-84805501D01*
X117437898Y-84805501D02*
X117580755Y-84876930D01*
X117580755Y-84876930D02*
X117652184Y-84948358D01*
X117652184Y-84948358D02*
X117723612Y-85091215D01*
X117723612Y-85091215D02*
X117723612Y-85519787D01*
X117723612Y-85519787D02*
X117652184Y-85662644D01*
X117652184Y-85662644D02*
X117580755Y-85734073D01*
X117580755Y-85734073D02*
X117437898Y-85805501D01*
X117437898Y-85805501D02*
X117223612Y-85805501D01*
X118295041Y-85734073D02*
X118437898Y-85805501D01*
X118437898Y-85805501D02*
X118723612Y-85805501D01*
X118723612Y-85805501D02*
X118866469Y-85734073D01*
X118866469Y-85734073D02*
X118937898Y-85591215D01*
X118937898Y-85591215D02*
X118937898Y-85519787D01*
X118937898Y-85519787D02*
X118866469Y-85376930D01*
X118866469Y-85376930D02*
X118723612Y-85305501D01*
X118723612Y-85305501D02*
X118509327Y-85305501D01*
X118509327Y-85305501D02*
X118366469Y-85234073D01*
X118366469Y-85234073D02*
X118295041Y-85091215D01*
X118295041Y-85091215D02*
X118295041Y-85019787D01*
X118295041Y-85019787D02*
X118366469Y-84876930D01*
X118366469Y-84876930D02*
X118509327Y-84805501D01*
X118509327Y-84805501D02*
X118723612Y-84805501D01*
X118723612Y-84805501D02*
X118866469Y-84876930D01*
X119580755Y-85805501D02*
X119580755Y-84305501D01*
X120223613Y-85805501D02*
X120223613Y-85019787D01*
X120223613Y-85019787D02*
X120152184Y-84876930D01*
X120152184Y-84876930D02*
X120009327Y-84805501D01*
X120009327Y-84805501D02*
X119795041Y-84805501D01*
X119795041Y-84805501D02*
X119652184Y-84876930D01*
X119652184Y-84876930D02*
X119580755Y-84948358D01*
X120937898Y-85805501D02*
X120937898Y-84305501D01*
X120937898Y-84305501D02*
X121509327Y-84305501D01*
X121509327Y-84305501D02*
X121652184Y-84376930D01*
X121652184Y-84376930D02*
X121723613Y-84448358D01*
X121723613Y-84448358D02*
X121795041Y-84591215D01*
X121795041Y-84591215D02*
X121795041Y-84805501D01*
X121795041Y-84805501D02*
X121723613Y-84948358D01*
X121723613Y-84948358D02*
X121652184Y-85019787D01*
X121652184Y-85019787D02*
X121509327Y-85091215D01*
X121509327Y-85091215D02*
X120937898Y-85091215D01*
X122652184Y-85805501D02*
X122509327Y-85734073D01*
X122509327Y-85734073D02*
X122437898Y-85591215D01*
X122437898Y-85591215D02*
X122437898Y-84305501D01*
X123866470Y-85805501D02*
X123866470Y-85019787D01*
X123866470Y-85019787D02*
X123795041Y-84876930D01*
X123795041Y-84876930D02*
X123652184Y-84805501D01*
X123652184Y-84805501D02*
X123366470Y-84805501D01*
X123366470Y-84805501D02*
X123223612Y-84876930D01*
X123866470Y-85734073D02*
X123723612Y-85805501D01*
X123723612Y-85805501D02*
X123366470Y-85805501D01*
X123366470Y-85805501D02*
X123223612Y-85734073D01*
X123223612Y-85734073D02*
X123152184Y-85591215D01*
X123152184Y-85591215D02*
X123152184Y-85448358D01*
X123152184Y-85448358D02*
X123223612Y-85305501D01*
X123223612Y-85305501D02*
X123366470Y-85234073D01*
X123366470Y-85234073D02*
X123723612Y-85234073D01*
X123723612Y-85234073D02*
X123866470Y-85162644D01*
X124437898Y-84805501D02*
X124795041Y-85805501D01*
X125152184Y-84805501D02*
X124795041Y-85805501D01*
X124795041Y-85805501D02*
X124652184Y-86162644D01*
X124652184Y-86162644D02*
X124580755Y-86234073D01*
X124580755Y-86234073D02*
X124437898Y-86305501D01*
D10*
D11*
X163997667Y-105371955D02*
X163902429Y-105562431D01*
X163902429Y-105562431D02*
X163902429Y-105848145D01*
X163902429Y-105848145D02*
X163997667Y-106133860D01*
X163997667Y-106133860D02*
X164188143Y-106324336D01*
X164188143Y-106324336D02*
X164378619Y-106419574D01*
X164378619Y-106419574D02*
X164759571Y-106514812D01*
X164759571Y-106514812D02*
X165045286Y-106514812D01*
X165045286Y-106514812D02*
X165426238Y-106419574D01*
X165426238Y-106419574D02*
X165616714Y-106324336D01*
X165616714Y-106324336D02*
X165807191Y-106133860D01*
X165807191Y-106133860D02*
X165902429Y-105848145D01*
X165902429Y-105848145D02*
X165902429Y-105657669D01*
X165902429Y-105657669D02*
X165807191Y-105371955D01*
X165807191Y-105371955D02*
X165711952Y-105276717D01*
X165711952Y-105276717D02*
X165045286Y-105276717D01*
X165045286Y-105276717D02*
X165045286Y-105657669D01*
D10*
D11*
X148481773Y-106380680D02*
X149596059Y-106380680D01*
X149596059Y-106380680D02*
X148996059Y-107066394D01*
X148996059Y-107066394D02*
X149253202Y-107066394D01*
X149253202Y-107066394D02*
X149424631Y-107152108D01*
X149424631Y-107152108D02*
X149510345Y-107237823D01*
X149510345Y-107237823D02*
X149596059Y-107409251D01*
X149596059Y-107409251D02*
X149596059Y-107837823D01*
X149596059Y-107837823D02*
X149510345Y-108009251D01*
X149510345Y-108009251D02*
X149424631Y-108094966D01*
X149424631Y-108094966D02*
X149253202Y-108180680D01*
X149253202Y-108180680D02*
X148738916Y-108180680D01*
X148738916Y-108180680D02*
X148567488Y-108094966D01*
X148567488Y-108094966D02*
X148481773Y-108009251D01*
X150367488Y-108009251D02*
X150453202Y-108094966D01*
X150453202Y-108094966D02*
X150367488Y-108180680D01*
X150367488Y-108180680D02*
X150281774Y-108094966D01*
X150281774Y-108094966D02*
X150367488Y-108009251D01*
X150367488Y-108009251D02*
X150367488Y-108180680D01*
X151053202Y-106380680D02*
X152167488Y-106380680D01*
X152167488Y-106380680D02*
X151567488Y-107066394D01*
X151567488Y-107066394D02*
X151824631Y-107066394D01*
X151824631Y-107066394D02*
X151996060Y-107152108D01*
X151996060Y-107152108D02*
X152081774Y-107237823D01*
X152081774Y-107237823D02*
X152167488Y-107409251D01*
X152167488Y-107409251D02*
X152167488Y-107837823D01*
X152167488Y-107837823D02*
X152081774Y-108009251D01*
X152081774Y-108009251D02*
X151996060Y-108094966D01*
X151996060Y-108094966D02*
X151824631Y-108180680D01*
X151824631Y-108180680D02*
X151310345Y-108180680D01*
X151310345Y-108180680D02*
X151138917Y-108094966D01*
X151138917Y-108094966D02*
X151053202Y-108009251D01*
X152767488Y-106980680D02*
X153196060Y-108180680D01*
X153196060Y-108180680D02*
X153624631Y-106980680D01*
D10*
D11*
X116910225Y-106007019D02*
X116243558Y-106007019D01*
X116243558Y-107054638D02*
X116243558Y-105054638D01*
X116243558Y-105054638D02*
X117195939Y-105054638D01*
X117672130Y-105054638D02*
X118814987Y-105054638D01*
X118243558Y-107054638D02*
X118243558Y-105054638D01*
X119481654Y-107054638D02*
X119481654Y-105054638D01*
X119481654Y-105054638D02*
X119957844Y-105054638D01*
X119957844Y-105054638D02*
X120243559Y-105149876D01*
X120243559Y-105149876D02*
X120434035Y-105340352D01*
X120434035Y-105340352D02*
X120529273Y-105530828D01*
X120529273Y-105530828D02*
X120624511Y-105911780D01*
X120624511Y-105911780D02*
X120624511Y-106197495D01*
X120624511Y-106197495D02*
X120529273Y-106578447D01*
X120529273Y-106578447D02*
X120434035Y-106768923D01*
X120434035Y-106768923D02*
X120243559Y-106959400D01*
X120243559Y-106959400D02*
X119957844Y-107054638D01*
X119957844Y-107054638D02*
X119481654Y-107054638D01*
X121481654Y-107054638D02*
X121481654Y-105054638D01*
D12*
%TO.P,J2,1*%
%TO.N,DTR*%
X161354148Y-90175605D03*
%TO.P,J2,2*%
%TO.N,Net-(JP1-B)*%
X161354148Y-92715605D03*
%TO.P,J2,3*%
%TO.N,T-TX*%
X161354148Y-95255605D03*
%TO.P,J2,4*%
%TO.N,VCC*%
X161354148Y-97795605D03*
%TO.P,J2,5*%
%TO.N,UPDI*%
X161354148Y-100335605D03*
%TO.P,J2,6*%
%TO.N,GND*%
X161354148Y-102875605D03*
%TD*%
D13*
%TO.P,C1,1*%
%TO.N,+5V*%
X137449528Y-103997945D03*
%TO.P,C1,2*%
%TO.N,GND*%
X137449528Y-107397945D03*
%TD*%
D14*
%TO.P,C2,1*%
%TO.N,Net-(U1-V3)*%
X137036467Y-92899194D03*
%TO.P,C2,2*%
%TO.N,GND*%
X140436467Y-92899194D03*
%TD*%
%TO.P,R3,1*%
%TO.N,Net-(D4-K)*%
X131258966Y-107019280D03*
%TO.P,R3,2*%
%TO.N,GND*%
X127858966Y-107019280D03*
%TD*%
%TO.P,R1,1*%
%TO.N,+3V3*%
X138464115Y-89889293D03*
%TO.P,R1,2*%
%TO.N,Net-(D1-A)*%
X141864115Y-89889293D03*
%TD*%
D15*
%TO.P,SW2,1,A*%
%TO.N,Net-(D5-K)*%
X150493590Y-93158767D03*
%TO.P,SW2,2,B*%
%TO.N,TX*%
X147993590Y-93158767D03*
%TO.P,SW2,3,C*%
%TO.N,T-TX*%
X145493590Y-93158767D03*
%TO.P,SW2,4,A*%
%TO.N,T-RX*%
X145493590Y-98658767D03*
%TO.P,SW2,5,B*%
%TO.N,RX*%
X147993590Y-98658767D03*
%TO.P,SW2,6,C*%
%TO.N,Net-(D5-A)*%
X150493590Y-98658767D03*
%TD*%
D16*
%TO.P,D5,1,K*%
%TO.N,Net-(D5-K)*%
X154075790Y-94648133D03*
%TO.P,D5,2,A*%
%TO.N,Net-(D5-A)*%
X154075790Y-97948133D03*
%TD*%
D17*
%TO.P,J1,1,VBUS*%
%TO.N,VBUS*%
X126795091Y-99685605D03*
%TO.P,J1,2,D+*%
%TO.N,D+*%
X126795091Y-97145605D03*
%TO.P,J1,3,D-*%
%TO.N,D-*%
X126795091Y-94605605D03*
%TO.P,J1,4,GND*%
%TO.N,GND*%
X126795091Y-92065605D03*
D18*
%TO.P,J1,5,Shield*%
X123782214Y-102342302D03*
D19*
X113964851Y-102239403D03*
X113961026Y-89549639D03*
D18*
X123772591Y-89538799D03*
%TD*%
D20*
%TO.P,U2,1,VO*%
%TO.N,+3V3*%
X132997631Y-89610605D03*
%TO.P,U2,2,VI*%
%TO.N,+5V*%
X131097631Y-89610605D03*
%TO.P,U2,3,GND*%
%TO.N,GND*%
X132047631Y-92010605D03*
%TD*%
D14*
%TO.P,D1,1,K*%
%TO.N,TX*%
X147179148Y-90516950D03*
%TO.P,D1,2,A*%
%TO.N,Net-(D1-A)*%
X143779148Y-90516950D03*
%TD*%
D21*
%TO.P,D3,1,K*%
%TO.N,+5V*%
X130984641Y-103632261D03*
%TO.P,D3,2,A*%
%TO.N,VBUS*%
X127684641Y-103632261D03*
%TD*%
D14*
%TO.P,R2,1*%
%TO.N,+3V3*%
X138508163Y-87466645D03*
%TO.P,R2,2*%
%TO.N,Net-(D2-A)*%
X141908163Y-87466645D03*
%TD*%
D22*
%TO.P,SW1,*%
%TO.N,*%
X141097802Y-106854511D03*
X144097802Y-106854511D03*
D23*
%TO.P,SW1,1,A*%
%TO.N,+5V*%
X140097802Y-104254511D03*
%TO.P,SW1,2,B*%
%TO.N,VCC*%
X142597802Y-104254511D03*
%TO.P,SW1,3,C*%
%TO.N,+3V3*%
X145097802Y-104254511D03*
%TD*%
D14*
%TO.P,C4,1*%
%TO.N,+5V*%
X129245034Y-87774927D03*
%TO.P,C4,2*%
%TO.N,GND*%
X125845034Y-87774927D03*
%TD*%
D13*
%TO.P,JP1,1,A*%
%TO.N,T-RX*%
X156909148Y-94415605D03*
%TO.P,JP1,2,B*%
%TO.N,Net-(JP1-B)*%
X156909148Y-91015605D03*
%TD*%
%TO.P,D4,1,K*%
%TO.N,Net-(D4-K)*%
X134844304Y-107397945D03*
%TO.P,D4,2,A*%
%TO.N,+5V*%
X134844304Y-103997945D03*
%TD*%
%TO.P,R4,1*%
%TO.N,Net-(D5-A)*%
X156909148Y-98435605D03*
%TO.P,R4,2*%
%TO.N,UPDI*%
X156909148Y-102035605D03*
%TD*%
D24*
%TO.P,U1,1,GND*%
%TO.N,GND*%
X140335000Y-95545001D03*
%TO.P,U1,2,TXD*%
%TO.N,TX*%
X139065000Y-95545001D03*
%TO.P,U1,3,RXD*%
%TO.N,RX*%
X137795000Y-95545001D03*
%TO.P,U1,4,V3*%
%TO.N,Net-(U1-V3)*%
X136525000Y-95545001D03*
%TO.P,U1,5,UD+*%
%TO.N,D+*%
X135255000Y-95545001D03*
%TO.P,U1,6,UD-*%
%TO.N,D-*%
X133985000Y-95545001D03*
%TO.P,U1,7,NC*%
%TO.N,unconnected-(U1-NC-Pad7)*%
X132715000Y-95545001D03*
%TO.P,U1,8,NC*%
%TO.N,unconnected-(U1-NC-Pad8)*%
X131445000Y-95545001D03*
%TO.P,U1,9,~{CTS}*%
%TO.N,CTS*%
X131445000Y-100495001D03*
%TO.P,U1,10,~{DSR}*%
%TO.N,unconnected-(U1-~{DSR}-Pad10)*%
X132715000Y-100495001D03*
%TO.P,U1,11,~{RI}*%
%TO.N,unconnected-(U1-~{RI}-Pad11)*%
X133985000Y-100495001D03*
%TO.P,U1,12,~{DCD}*%
%TO.N,unconnected-(U1-~{DCD}-Pad12)*%
X135255000Y-100495001D03*
%TO.P,U1,13,~{DTR}*%
%TO.N,DTR*%
X136525000Y-100495001D03*
%TO.P,U1,14,~{RTS}*%
%TO.N,unconnected-(U1-~{RTS}-Pad14)*%
X137795000Y-100495001D03*
%TO.P,U1,15,R232*%
%TO.N,unconnected-(U1-R232-Pad15)*%
X139065000Y-100495001D03*
%TO.P,U1,16,VCC*%
%TO.N,VCC*%
X140335000Y-100495001D03*
%TD*%
D25*
%TO.P,JP2,1,A*%
%TO.N,CTS*%
X151814148Y-103510605D03*
D26*
%TO.P,JP2,2,B*%
%TO.N,UPDI*%
X153214148Y-103510605D03*
%TD*%
D13*
%TO.P,C3,1*%
%TO.N,+3V3*%
X134996347Y-89172870D03*
%TO.P,C3,2*%
%TO.N,GND*%
X134996347Y-92572870D03*
%TD*%
D14*
%TO.P,D2,1,K*%
%TO.N,RX*%
X147193611Y-88285287D03*
%TO.P,D2,2,A*%
%TO.N,Net-(D2-A)*%
X143793611Y-88285287D03*
%TD*%
D27*
%TO.N,+5V*%
X129245034Y-88546491D02*
X130309148Y-89610605D01*
X147661543Y-105773210D02*
X147598991Y-105773210D01*
X139971802Y-107320916D02*
X139971802Y-104380511D01*
X165965148Y-101439605D02*
X162624148Y-104780605D01*
X144819242Y-107980511D02*
X140631397Y-107980511D01*
X147026543Y-105773210D02*
X144819242Y-107980511D01*
X134844304Y-103997945D02*
X131350325Y-103997945D01*
X131097631Y-89610605D02*
X131097631Y-86821321D01*
X162624148Y-104780605D02*
X158179148Y-104780605D01*
X130309148Y-89610605D02*
X131097631Y-89610605D01*
X139971802Y-104380511D02*
X140097802Y-104254511D01*
X131097631Y-86821321D02*
X133624347Y-84294605D01*
X140631397Y-107980511D02*
X139971802Y-107320916D01*
X139841236Y-103997945D02*
X140097802Y-104254511D01*
X133624347Y-84294605D02*
X160677587Y-84294605D01*
X131350325Y-103997945D02*
X130984641Y-103632261D01*
X160677587Y-84294605D02*
X165965148Y-89582166D01*
X129245034Y-87774927D02*
X129245034Y-88546491D01*
X147661543Y-105773210D02*
X147026543Y-105773210D01*
X137449528Y-103997945D02*
X139841236Y-103997945D01*
X158179148Y-104780605D02*
X157186543Y-105773210D01*
X165965148Y-89582166D02*
X165965148Y-101439605D01*
X137449528Y-103997945D02*
X134844304Y-103997945D01*
X140203625Y-104360334D02*
X140097802Y-104254511D01*
X157186543Y-105773210D02*
X147661543Y-105773210D01*
%TO.N,GND*%
X132047631Y-92010605D02*
X132047631Y-88367122D01*
X140335000Y-95545001D02*
X140335000Y-93491457D01*
X123772591Y-89538799D02*
X123772591Y-88229076D01*
X123782214Y-89548422D02*
X123772591Y-89538799D01*
X128635473Y-107019280D02*
X127858966Y-107019280D01*
X123782214Y-92080605D02*
X123782214Y-89548422D01*
X126795091Y-92065605D02*
X131992631Y-92065605D01*
X113964851Y-89553464D02*
X113961026Y-89549639D01*
X132113879Y-92076853D02*
X134500330Y-92076853D01*
X140436467Y-92899194D02*
X140252878Y-92715605D01*
X132047631Y-92010605D02*
X132113879Y-92076853D01*
X134888455Y-92019372D02*
X134888455Y-92464978D01*
X126795091Y-90033577D02*
X126795091Y-92065605D01*
X113964851Y-102239403D02*
X123679315Y-102239403D01*
X125845034Y-89083520D02*
X126795091Y-90033577D01*
X134888455Y-92464978D02*
X134996347Y-92572870D01*
X163259148Y-102875605D02*
X161354148Y-102875605D01*
X137449528Y-107397945D02*
X137449528Y-106275985D01*
X125845034Y-87774927D02*
X125845034Y-89083520D01*
X135319148Y-85095605D02*
X160345801Y-85095605D01*
X131992631Y-92065605D02*
X132047631Y-92010605D01*
X123797214Y-92065605D02*
X123782214Y-92080605D01*
X140252878Y-92715605D02*
X139610033Y-92715605D01*
X140335000Y-93491457D02*
X140430322Y-93396135D01*
X160345801Y-85095605D02*
X165164148Y-89913952D01*
X140430322Y-93396135D02*
X140430322Y-92905339D01*
X165164148Y-89913952D02*
X165164148Y-100970605D01*
X123679315Y-102239403D02*
X123782214Y-102342302D01*
X113971866Y-89538799D02*
X113961026Y-89549639D01*
X123772591Y-89538799D02*
X113971866Y-89538799D01*
X123782214Y-102342302D02*
X123782214Y-92080605D01*
X137449528Y-106275985D02*
X136742823Y-105569280D01*
X125492823Y-107019280D02*
X123782214Y-105308671D01*
X123782214Y-105308671D02*
X123782214Y-102342302D01*
X113964851Y-102239403D02*
X113964851Y-89553464D01*
X136742823Y-105569280D02*
X130085473Y-105569280D01*
X126795091Y-92065605D02*
X123797214Y-92065605D01*
X123772591Y-88229076D02*
X124226740Y-87774927D01*
X127858966Y-107019280D02*
X125492823Y-107019280D01*
X135459633Y-91448194D02*
X134888455Y-92019372D01*
X140430322Y-92905339D02*
X140436467Y-92899194D01*
X124226740Y-87774927D02*
X125845034Y-87774927D01*
X139610033Y-92715605D02*
X138342622Y-91448194D01*
X165164148Y-100970605D02*
X163259148Y-102875605D01*
X138342622Y-91448194D02*
X135459633Y-91448194D01*
X130085473Y-105569280D02*
X128635473Y-107019280D01*
X132047631Y-88367122D02*
X135319148Y-85095605D01*
X134500330Y-92076853D02*
X134996347Y-92572870D01*
%TO.N,TX*%
X147979148Y-93294587D02*
X147993590Y-93280145D01*
X147993590Y-93280145D02*
X147993590Y-93158767D01*
X147179148Y-90810605D02*
X147179148Y-90516950D01*
X142939148Y-95255605D02*
X147664261Y-95255605D01*
X147979148Y-94940718D02*
X147979148Y-93294587D01*
X139065000Y-95545001D02*
X139065000Y-96316233D01*
X139065000Y-96316233D02*
X139869768Y-97121001D01*
X147664261Y-95255605D02*
X147979148Y-94940718D01*
X147993590Y-93158767D02*
X147979148Y-93144325D01*
X139869768Y-97121001D02*
X141073752Y-97121001D01*
X147979148Y-93144325D02*
X147979148Y-91610605D01*
X147979148Y-91610605D02*
X147179148Y-90810605D01*
X141073752Y-97121001D02*
X142939148Y-95255605D01*
%TO.N,Net-(D1-A)*%
X143485493Y-90810605D02*
X142785427Y-90810605D01*
X143779148Y-90516950D02*
X143485493Y-90810605D01*
X142785427Y-90810605D02*
X141864115Y-89889293D01*
%TO.N,Net-(D2-A)*%
X143499956Y-88285287D02*
X143793611Y-88285287D01*
X141908163Y-87466645D02*
X142681314Y-87466645D01*
X142681314Y-87466645D02*
X143499956Y-88285287D01*
%TO.N,RX*%
X139393001Y-98118001D02*
X140399148Y-98118001D01*
X147993590Y-98658767D02*
X147993590Y-96092356D01*
X149278148Y-89563479D02*
X148293611Y-88578942D01*
X143881955Y-96066798D02*
X148019148Y-96066798D01*
X147487266Y-88578942D02*
X147193611Y-88285287D01*
X137795000Y-96520000D02*
X139393001Y-98118001D01*
X148293611Y-88578942D02*
X147487266Y-88578942D01*
X141830752Y-98118001D02*
X143881955Y-96066798D01*
X148739955Y-96066798D02*
X149278148Y-95528605D01*
X148019148Y-96066798D02*
X148739955Y-96066798D01*
X147993590Y-96092356D02*
X148019148Y-96066798D01*
X149278148Y-95528605D02*
X149278148Y-89563479D01*
X140399148Y-98118001D02*
X141830752Y-98118001D01*
X137795000Y-95545001D02*
X137795000Y-96520000D01*
%TO.N,VBUS*%
X126795091Y-101115854D02*
X126795091Y-99685605D01*
X127684641Y-102005404D02*
X126795091Y-101115854D01*
X127684641Y-103632261D02*
X127684641Y-102005404D01*
%TO.N,DTR*%
X140963349Y-98919001D02*
X139061216Y-98919001D01*
X143468043Y-101423695D02*
X140963349Y-98919001D01*
X162624148Y-96525605D02*
X159922148Y-96525605D01*
X139061216Y-98919001D02*
X139061215Y-98919001D01*
X152636076Y-99741771D02*
X150949685Y-101428162D01*
X146932727Y-101423695D02*
X143468043Y-101423695D01*
X158519800Y-99359953D02*
X158137982Y-99741771D01*
X158137982Y-99741771D02*
X152636076Y-99741771D01*
X162624148Y-90175605D02*
X162955148Y-90506605D01*
X161354148Y-90175605D02*
X162624148Y-90175605D01*
X162955148Y-96194605D02*
X162624148Y-96525605D01*
X150949685Y-101428162D02*
X146937194Y-101428162D01*
X158519800Y-97927953D02*
X158519800Y-99359953D01*
X137126001Y-98919001D02*
X139061216Y-98919001D01*
X159922148Y-96525605D02*
X158519800Y-97927953D01*
X146937194Y-101428162D02*
X146932727Y-101423695D01*
X162955148Y-90506605D02*
X162955148Y-96194605D01*
X136525000Y-100495001D02*
X136525000Y-99520002D01*
X136525000Y-99520002D02*
X137126001Y-98919001D01*
%TO.N,CTS*%
X147428677Y-103521647D02*
X146765105Y-103521647D01*
X146738367Y-103494907D02*
X146738365Y-103494907D01*
X151803108Y-103521645D02*
X151121775Y-103521645D01*
X143698802Y-105455511D02*
X141496802Y-105455511D01*
X144689187Y-103030566D02*
X143996802Y-103030566D01*
X151121775Y-103521645D02*
X151121773Y-103521645D01*
X146269155Y-103025695D02*
X144694058Y-103025695D01*
X146765105Y-103521647D02*
X146765105Y-103521645D01*
X141496802Y-105455511D02*
X141198802Y-105157511D01*
X144694058Y-103025695D02*
X144694059Y-103025695D01*
X143996802Y-103030566D02*
X143996802Y-105157511D01*
X147428679Y-103521645D02*
X147428677Y-103521647D01*
X150458203Y-103521645D02*
X147428679Y-103521645D01*
X143996802Y-105157511D02*
X143698802Y-105455511D01*
X140568651Y-102570967D02*
X132749734Y-102570967D01*
X141198802Y-103201118D02*
X140568651Y-102570967D01*
X146765105Y-103521645D02*
X146738367Y-103494907D01*
X144694059Y-103025695D02*
X144689187Y-103030566D01*
X150458203Y-103521645D02*
X150458204Y-103521646D01*
X141198802Y-105157511D02*
X141198802Y-103201118D01*
X151121773Y-103521645D02*
X150458203Y-103521645D01*
X132749734Y-102570967D02*
X131445000Y-101266233D01*
X131445000Y-101266233D02*
X131445000Y-100495001D01*
X151814148Y-103510605D02*
X151803108Y-103521645D01*
X146738365Y-103494907D02*
X146269155Y-103025695D01*
%TO.N,VCC*%
X146605409Y-102229162D02*
X146605408Y-102229162D01*
X146600941Y-102224695D02*
X146605409Y-102229162D01*
X151281471Y-102229162D02*
X151299391Y-102211240D01*
X146605409Y-102229162D02*
X151281471Y-102229162D01*
X142597802Y-102531758D02*
X142597802Y-101954238D01*
X159320800Y-99691739D02*
X159320800Y-98745314D01*
X140335000Y-100495001D02*
X141138565Y-100495001D01*
X142597802Y-102531758D02*
X142597802Y-102229566D01*
X160270509Y-97795605D02*
X161354148Y-97795605D01*
X158938982Y-100073557D02*
X158938982Y-100073556D01*
X144357402Y-102229566D02*
X144362273Y-102224695D01*
X159320800Y-98745314D02*
X160270509Y-97795605D01*
X158938982Y-100073556D02*
X159320800Y-99691739D01*
X152967862Y-100542771D02*
X158469768Y-100542771D01*
X151299391Y-102211240D02*
X152967862Y-100542771D01*
X158469768Y-100542771D02*
X158938982Y-100073557D01*
X142597802Y-104254511D02*
X142597802Y-102531758D01*
X142597802Y-101954238D02*
X141138565Y-100495001D01*
X142597802Y-102229566D02*
X144357402Y-102229566D01*
X144362273Y-102224695D02*
X146600941Y-102224695D01*
%TO.N,+3V3*%
X138464115Y-87510693D02*
X138508163Y-87466645D01*
X138464115Y-89889293D02*
X138464115Y-87510693D01*
X160253148Y-101436605D02*
X156823148Y-104866605D01*
X140749108Y-86015645D02*
X160133056Y-86015645D01*
X139298108Y-87466645D02*
X140749108Y-86015645D01*
X138508163Y-87466645D02*
X139298108Y-87466645D01*
X135323120Y-89499643D02*
X138074465Y-89499643D01*
X164121620Y-90004209D02*
X164121620Y-100270133D01*
X132997631Y-89610605D02*
X134777493Y-89610605D01*
X134777493Y-89610605D02*
X134996347Y-89391751D01*
X138074465Y-89499643D02*
X138464115Y-89889293D01*
X164121620Y-100270133D02*
X162955148Y-101436605D01*
X145156024Y-104312733D02*
X145097802Y-104254511D01*
X145894109Y-104312733D02*
X145156024Y-104312733D01*
X160133056Y-86015645D02*
X164121620Y-90004209D01*
X156823148Y-104866605D02*
X146447981Y-104866605D01*
X146447981Y-104866605D02*
X145894109Y-104312733D01*
X162955148Y-101436605D02*
X160253148Y-101436605D01*
X134996347Y-89172870D02*
X135323120Y-89499643D01*
X134996347Y-89391751D02*
X134996347Y-89172870D01*
%TO.N,D+*%
X135255000Y-96520000D02*
X135255000Y-95545001D01*
X134629395Y-97145605D02*
X135255000Y-96520000D01*
X126795091Y-97145605D02*
X134629395Y-97145605D01*
%TO.N,D-*%
X130004225Y-93383614D02*
X128782234Y-94605605D01*
X131678524Y-93849238D02*
X131344148Y-93849238D01*
X130544148Y-93383614D02*
X130004225Y-93383614D01*
X133985000Y-95545001D02*
X133985000Y-94570002D01*
X128147234Y-94605605D02*
X126795091Y-94605605D01*
X130878524Y-93383614D02*
X130544148Y-93383614D01*
X128782234Y-94605605D02*
X128147234Y-94605605D01*
X132798612Y-93383614D02*
X132144148Y-93383614D01*
X133985000Y-94570002D02*
X132798612Y-93383614D01*
X131111336Y-93616426D02*
G75*
G03*
X130878524Y-93383564I-232836J26D01*
G01*
X132144148Y-93383614D02*
G75*
G03*
X131911314Y-93616426I-48J-232786D01*
G01*
X131344148Y-93849238D02*
G75*
G02*
X131111262Y-93616426I-48J232838D01*
G01*
X131911336Y-93616426D02*
G75*
G02*
X131678524Y-93849236I-232836J26D01*
G01*
%TO.N,Net-(D4-K)*%
X134465639Y-107019280D02*
X134844304Y-107397945D01*
X131258966Y-107019280D02*
X134465639Y-107019280D01*
%TO.N,Net-(D5-A)*%
X150493590Y-98802335D02*
X150966860Y-99275605D01*
X151619148Y-99275605D02*
X152946620Y-97948133D01*
X155156676Y-97948133D02*
X154075790Y-97948133D01*
X156909148Y-98635605D02*
X156704148Y-98430605D01*
X155639148Y-98430605D02*
X155156676Y-97948133D01*
X150966860Y-99275605D02*
X151619148Y-99275605D01*
X150493590Y-98658767D02*
X150493590Y-98802335D01*
X156704148Y-98430605D02*
X155639148Y-98430605D01*
X152946620Y-97948133D02*
X154075790Y-97948133D01*
%TO.N,Net-(D5-K)*%
X154075790Y-94648133D02*
X151351676Y-94648133D01*
X150482495Y-93778952D02*
X150482495Y-93169862D01*
X151351676Y-94648133D02*
X150482495Y-93778952D01*
X150482495Y-93169862D02*
X150493590Y-93158767D01*
%TO.N,UPDI*%
X160034148Y-100385605D02*
X161304148Y-100385605D01*
X158384148Y-102035605D02*
X160034148Y-100385605D01*
X156909148Y-102035605D02*
X158384148Y-102035605D01*
X153114148Y-103510605D02*
X153741648Y-103510605D01*
X153741648Y-103510605D02*
X155216648Y-102035605D01*
X155216648Y-102035605D02*
X156909148Y-102035605D01*
X161304148Y-100385605D02*
X161354148Y-100335605D01*
%TO.N,T-RX*%
X156909148Y-95255605D02*
X156909148Y-94415605D01*
X145493590Y-100330961D02*
X145785325Y-100622696D01*
X145493590Y-98658767D02*
X145493590Y-100330961D01*
X149194590Y-100335605D02*
X149194590Y-96905767D01*
X145785325Y-100622696D02*
X148907499Y-100622696D01*
X149194590Y-96905767D02*
X149916097Y-96184260D01*
X149916097Y-96184260D02*
X155980493Y-96184260D01*
X155980493Y-96184260D02*
X156909148Y-95255605D01*
X148907499Y-100622696D02*
X149194590Y-100335605D01*
%TO.N,T-TX*%
X155004148Y-92715605D02*
X149105188Y-86816645D01*
X160084148Y-95255605D02*
X157544148Y-92715605D01*
X157544148Y-92715605D02*
X155004148Y-92715605D01*
X149105188Y-86816645D02*
X145663108Y-86816645D01*
X145663108Y-86816645D02*
X145479148Y-87000605D01*
X145479148Y-93144325D02*
X145493590Y-93158767D01*
X145479148Y-87000605D02*
X145479148Y-93144325D01*
X161354148Y-95255605D02*
X160084148Y-95255605D01*
%TO.N,Net-(U1-V3)*%
X136707263Y-92899194D02*
X137036467Y-92899194D01*
X136525000Y-95545001D02*
X136525000Y-93081457D01*
X136525000Y-93081457D02*
X136707263Y-92899194D01*
%TO.N,Net-(JP1-B)*%
X158384148Y-91015605D02*
X156909148Y-91015605D01*
X161354148Y-92715605D02*
X160084148Y-92715605D01*
X160084148Y-92715605D02*
X158384148Y-91015605D01*
%TD*%
M02*
