%TF.GenerationSoftware,KiCad,Pcbnew,9.0.0*%
%TF.CreationDate,2025-04-06T18:56:11+05:30*%
%TF.ProjectId,FTDI-UPDI-CH340-Type-c,46544449-2d55-4504-9449-2d4348333430,rev?*%
%TF.SameCoordinates,Original*%
%TF.FileFunction,Legend,Top*%
%TF.FilePolarity,Positive*%
%FSLAX46Y46*%
G04 Gerber Fmt 4.6, Leading zero omitted, Abs format (unit mm)*
G04 Created by KiCad (PCBNEW 9.0.0) date 2025-04-06 18:56:11*
%MOMM*%
%LPD*%
G01*
G04 APERTURE LIST*
%ADD10C,0.150000*%
%ADD11C,0.100000*%
%ADD12C,0.120000*%
%ADD13C,0.127000*%
%ADD14C,0.200000*%
G04 APERTURE END LIST*
D10*
X161254987Y-87090424D02*
X161254987Y-87804709D01*
X161254987Y-87804709D02*
X161207368Y-87947566D01*
X161207368Y-87947566D02*
X161112130Y-88042805D01*
X161112130Y-88042805D02*
X160969273Y-88090424D01*
X160969273Y-88090424D02*
X160874035Y-88090424D01*
X161683559Y-87185662D02*
X161731178Y-87138043D01*
X161731178Y-87138043D02*
X161826416Y-87090424D01*
X161826416Y-87090424D02*
X162064511Y-87090424D01*
X162064511Y-87090424D02*
X162159749Y-87138043D01*
X162159749Y-87138043D02*
X162207368Y-87185662D01*
X162207368Y-87185662D02*
X162254987Y-87280900D01*
X162254987Y-87280900D02*
X162254987Y-87376138D01*
X162254987Y-87376138D02*
X162207368Y-87518995D01*
X162207368Y-87518995D02*
X161635940Y-88090424D01*
X161635940Y-88090424D02*
X162254987Y-88090424D01*
X137809108Y-105864611D02*
X137856728Y-105912230D01*
X137856728Y-105912230D02*
X137904347Y-106055087D01*
X137904347Y-106055087D02*
X137904347Y-106150325D01*
X137904347Y-106150325D02*
X137856728Y-106293182D01*
X137856728Y-106293182D02*
X137761489Y-106388420D01*
X137761489Y-106388420D02*
X137666251Y-106436039D01*
X137666251Y-106436039D02*
X137475775Y-106483658D01*
X137475775Y-106483658D02*
X137332918Y-106483658D01*
X137332918Y-106483658D02*
X137142442Y-106436039D01*
X137142442Y-106436039D02*
X137047204Y-106388420D01*
X137047204Y-106388420D02*
X136951966Y-106293182D01*
X136951966Y-106293182D02*
X136904347Y-106150325D01*
X136904347Y-106150325D02*
X136904347Y-106055087D01*
X136904347Y-106055087D02*
X136951966Y-105912230D01*
X136951966Y-105912230D02*
X136999585Y-105864611D01*
X137904347Y-104912230D02*
X137904347Y-105483658D01*
X137904347Y-105197944D02*
X136904347Y-105197944D01*
X136904347Y-105197944D02*
X137047204Y-105293182D01*
X137047204Y-105293182D02*
X137142442Y-105388420D01*
X137142442Y-105388420D02*
X137190061Y-105483658D01*
X138569800Y-93258774D02*
X138522181Y-93306394D01*
X138522181Y-93306394D02*
X138379324Y-93354013D01*
X138379324Y-93354013D02*
X138284086Y-93354013D01*
X138284086Y-93354013D02*
X138141229Y-93306394D01*
X138141229Y-93306394D02*
X138045991Y-93211155D01*
X138045991Y-93211155D02*
X137998372Y-93115917D01*
X137998372Y-93115917D02*
X137950753Y-92925441D01*
X137950753Y-92925441D02*
X137950753Y-92782584D01*
X137950753Y-92782584D02*
X137998372Y-92592108D01*
X137998372Y-92592108D02*
X138045991Y-92496870D01*
X138045991Y-92496870D02*
X138141229Y-92401632D01*
X138141229Y-92401632D02*
X138284086Y-92354013D01*
X138284086Y-92354013D02*
X138379324Y-92354013D01*
X138379324Y-92354013D02*
X138522181Y-92401632D01*
X138522181Y-92401632D02*
X138569800Y-92449251D01*
X138950753Y-92449251D02*
X138998372Y-92401632D01*
X138998372Y-92401632D02*
X139093610Y-92354013D01*
X139093610Y-92354013D02*
X139331705Y-92354013D01*
X139331705Y-92354013D02*
X139426943Y-92401632D01*
X139426943Y-92401632D02*
X139474562Y-92449251D01*
X139474562Y-92449251D02*
X139522181Y-92544489D01*
X139522181Y-92544489D02*
X139522181Y-92639727D01*
X139522181Y-92639727D02*
X139474562Y-92782584D01*
X139474562Y-92782584D02*
X138903134Y-93354013D01*
X138903134Y-93354013D02*
X139522181Y-93354013D01*
X129392299Y-107474099D02*
X129058966Y-106997908D01*
X128820871Y-107474099D02*
X128820871Y-106474099D01*
X128820871Y-106474099D02*
X129201823Y-106474099D01*
X129201823Y-106474099D02*
X129297061Y-106521718D01*
X129297061Y-106521718D02*
X129344680Y-106569337D01*
X129344680Y-106569337D02*
X129392299Y-106664575D01*
X129392299Y-106664575D02*
X129392299Y-106807432D01*
X129392299Y-106807432D02*
X129344680Y-106902670D01*
X129344680Y-106902670D02*
X129297061Y-106950289D01*
X129297061Y-106950289D02*
X129201823Y-106997908D01*
X129201823Y-106997908D02*
X128820871Y-106997908D01*
X129725633Y-106474099D02*
X130344680Y-106474099D01*
X130344680Y-106474099D02*
X130011347Y-106855051D01*
X130011347Y-106855051D02*
X130154204Y-106855051D01*
X130154204Y-106855051D02*
X130249442Y-106902670D01*
X130249442Y-106902670D02*
X130297061Y-106950289D01*
X130297061Y-106950289D02*
X130344680Y-107045527D01*
X130344680Y-107045527D02*
X130344680Y-107283622D01*
X130344680Y-107283622D02*
X130297061Y-107378860D01*
X130297061Y-107378860D02*
X130249442Y-107426480D01*
X130249442Y-107426480D02*
X130154204Y-107474099D01*
X130154204Y-107474099D02*
X129868490Y-107474099D01*
X129868490Y-107474099D02*
X129773252Y-107426480D01*
X129773252Y-107426480D02*
X129725633Y-107378860D01*
X139997448Y-90344112D02*
X139664115Y-89867921D01*
X139426020Y-90344112D02*
X139426020Y-89344112D01*
X139426020Y-89344112D02*
X139806972Y-89344112D01*
X139806972Y-89344112D02*
X139902210Y-89391731D01*
X139902210Y-89391731D02*
X139949829Y-89439350D01*
X139949829Y-89439350D02*
X139997448Y-89534588D01*
X139997448Y-89534588D02*
X139997448Y-89677445D01*
X139997448Y-89677445D02*
X139949829Y-89772683D01*
X139949829Y-89772683D02*
X139902210Y-89820302D01*
X139902210Y-89820302D02*
X139806972Y-89867921D01*
X139806972Y-89867921D02*
X139426020Y-89867921D01*
X140949829Y-90344112D02*
X140378401Y-90344112D01*
X140664115Y-90344112D02*
X140664115Y-89344112D01*
X140664115Y-89344112D02*
X140568877Y-89486969D01*
X140568877Y-89486969D02*
X140473639Y-89582207D01*
X140473639Y-89582207D02*
X140378401Y-89629826D01*
X146660257Y-96315967D02*
X146803114Y-96363586D01*
X146803114Y-96363586D02*
X147041209Y-96363586D01*
X147041209Y-96363586D02*
X147136447Y-96315967D01*
X147136447Y-96315967D02*
X147184066Y-96268347D01*
X147184066Y-96268347D02*
X147231685Y-96173109D01*
X147231685Y-96173109D02*
X147231685Y-96077871D01*
X147231685Y-96077871D02*
X147184066Y-95982633D01*
X147184066Y-95982633D02*
X147136447Y-95935014D01*
X147136447Y-95935014D02*
X147041209Y-95887395D01*
X147041209Y-95887395D02*
X146850733Y-95839776D01*
X146850733Y-95839776D02*
X146755495Y-95792157D01*
X146755495Y-95792157D02*
X146707876Y-95744538D01*
X146707876Y-95744538D02*
X146660257Y-95649300D01*
X146660257Y-95649300D02*
X146660257Y-95554062D01*
X146660257Y-95554062D02*
X146707876Y-95458824D01*
X146707876Y-95458824D02*
X146755495Y-95411205D01*
X146755495Y-95411205D02*
X146850733Y-95363586D01*
X146850733Y-95363586D02*
X147088828Y-95363586D01*
X147088828Y-95363586D02*
X147231685Y-95411205D01*
X147565019Y-95363586D02*
X147803114Y-96363586D01*
X147803114Y-96363586D02*
X147993590Y-95649300D01*
X147993590Y-95649300D02*
X148184066Y-96363586D01*
X148184066Y-96363586D02*
X148422162Y-95363586D01*
X148755495Y-95458824D02*
X148803114Y-95411205D01*
X148803114Y-95411205D02*
X148898352Y-95363586D01*
X148898352Y-95363586D02*
X149136447Y-95363586D01*
X149136447Y-95363586D02*
X149231685Y-95411205D01*
X149231685Y-95411205D02*
X149279304Y-95458824D01*
X149279304Y-95458824D02*
X149326923Y-95554062D01*
X149326923Y-95554062D02*
X149326923Y-95649300D01*
X149326923Y-95649300D02*
X149279304Y-95792157D01*
X149279304Y-95792157D02*
X148707876Y-96363586D01*
X148707876Y-96363586D02*
X149326923Y-96363586D01*
X154530609Y-97036227D02*
X153530609Y-97036227D01*
X153530609Y-97036227D02*
X153530609Y-96798132D01*
X153530609Y-96798132D02*
X153578228Y-96655275D01*
X153578228Y-96655275D02*
X153673466Y-96560037D01*
X153673466Y-96560037D02*
X153768704Y-96512418D01*
X153768704Y-96512418D02*
X153959180Y-96464799D01*
X153959180Y-96464799D02*
X154102037Y-96464799D01*
X154102037Y-96464799D02*
X154292513Y-96512418D01*
X154292513Y-96512418D02*
X154387751Y-96560037D01*
X154387751Y-96560037D02*
X154482990Y-96655275D01*
X154482990Y-96655275D02*
X154530609Y-96798132D01*
X154530609Y-96798132D02*
X154530609Y-97036227D01*
X153530609Y-95560037D02*
X153530609Y-96036227D01*
X153530609Y-96036227D02*
X154006799Y-96083846D01*
X154006799Y-96083846D02*
X153959180Y-96036227D01*
X153959180Y-96036227D02*
X153911561Y-95940989D01*
X153911561Y-95940989D02*
X153911561Y-95702894D01*
X153911561Y-95702894D02*
X153959180Y-95607656D01*
X153959180Y-95607656D02*
X154006799Y-95560037D01*
X154006799Y-95560037D02*
X154102037Y-95512418D01*
X154102037Y-95512418D02*
X154340132Y-95512418D01*
X154340132Y-95512418D02*
X154435370Y-95560037D01*
X154435370Y-95560037D02*
X154482990Y-95607656D01*
X154482990Y-95607656D02*
X154530609Y-95702894D01*
X154530609Y-95702894D02*
X154530609Y-95940989D01*
X154530609Y-95940989D02*
X154482990Y-96036227D01*
X154482990Y-96036227D02*
X154435370Y-96083846D01*
X131598967Y-91150056D02*
X132408490Y-91150056D01*
X132408490Y-91150056D02*
X132503728Y-91102437D01*
X132503728Y-91102437D02*
X132551348Y-91054818D01*
X132551348Y-91054818D02*
X132598967Y-90959580D01*
X132598967Y-90959580D02*
X132598967Y-90769104D01*
X132598967Y-90769104D02*
X132551348Y-90673866D01*
X132551348Y-90673866D02*
X132503728Y-90626247D01*
X132503728Y-90626247D02*
X132408490Y-90578628D01*
X132408490Y-90578628D02*
X131598967Y-90578628D01*
X131694205Y-90150056D02*
X131646586Y-90102437D01*
X131646586Y-90102437D02*
X131598967Y-90007199D01*
X131598967Y-90007199D02*
X131598967Y-89769104D01*
X131598967Y-89769104D02*
X131646586Y-89673866D01*
X131646586Y-89673866D02*
X131694205Y-89626247D01*
X131694205Y-89626247D02*
X131789443Y-89578628D01*
X131789443Y-89578628D02*
X131884681Y-89578628D01*
X131884681Y-89578628D02*
X132027538Y-89626247D01*
X132027538Y-89626247D02*
X132598967Y-90197675D01*
X132598967Y-90197675D02*
X132598967Y-89578628D01*
X144741053Y-90971769D02*
X144741053Y-89971769D01*
X144741053Y-89971769D02*
X144979148Y-89971769D01*
X144979148Y-89971769D02*
X145122005Y-90019388D01*
X145122005Y-90019388D02*
X145217243Y-90114626D01*
X145217243Y-90114626D02*
X145264862Y-90209864D01*
X145264862Y-90209864D02*
X145312481Y-90400340D01*
X145312481Y-90400340D02*
X145312481Y-90543197D01*
X145312481Y-90543197D02*
X145264862Y-90733673D01*
X145264862Y-90733673D02*
X145217243Y-90828911D01*
X145217243Y-90828911D02*
X145122005Y-90924150D01*
X145122005Y-90924150D02*
X144979148Y-90971769D01*
X144979148Y-90971769D02*
X144741053Y-90971769D01*
X146264862Y-90971769D02*
X145693434Y-90971769D01*
X145979148Y-90971769D02*
X145979148Y-89971769D01*
X145979148Y-89971769D02*
X145883910Y-90114626D01*
X145883910Y-90114626D02*
X145788672Y-90209864D01*
X145788672Y-90209864D02*
X145693434Y-90257483D01*
X128596546Y-104087080D02*
X128596546Y-103087080D01*
X128596546Y-103087080D02*
X128834641Y-103087080D01*
X128834641Y-103087080D02*
X128977498Y-103134699D01*
X128977498Y-103134699D02*
X129072736Y-103229937D01*
X129072736Y-103229937D02*
X129120355Y-103325175D01*
X129120355Y-103325175D02*
X129167974Y-103515651D01*
X129167974Y-103515651D02*
X129167974Y-103658508D01*
X129167974Y-103658508D02*
X129120355Y-103848984D01*
X129120355Y-103848984D02*
X129072736Y-103944222D01*
X129072736Y-103944222D02*
X128977498Y-104039461D01*
X128977498Y-104039461D02*
X128834641Y-104087080D01*
X128834641Y-104087080D02*
X128596546Y-104087080D01*
X129501308Y-103087080D02*
X130120355Y-103087080D01*
X130120355Y-103087080D02*
X129787022Y-103468032D01*
X129787022Y-103468032D02*
X129929879Y-103468032D01*
X129929879Y-103468032D02*
X130025117Y-103515651D01*
X130025117Y-103515651D02*
X130072736Y-103563270D01*
X130072736Y-103563270D02*
X130120355Y-103658508D01*
X130120355Y-103658508D02*
X130120355Y-103896603D01*
X130120355Y-103896603D02*
X130072736Y-103991841D01*
X130072736Y-103991841D02*
X130025117Y-104039461D01*
X130025117Y-104039461D02*
X129929879Y-104087080D01*
X129929879Y-104087080D02*
X129644165Y-104087080D01*
X129644165Y-104087080D02*
X129548927Y-104039461D01*
X129548927Y-104039461D02*
X129501308Y-103991841D01*
X140041496Y-87921464D02*
X139708163Y-87445273D01*
X139470068Y-87921464D02*
X139470068Y-86921464D01*
X139470068Y-86921464D02*
X139851020Y-86921464D01*
X139851020Y-86921464D02*
X139946258Y-86969083D01*
X139946258Y-86969083D02*
X139993877Y-87016702D01*
X139993877Y-87016702D02*
X140041496Y-87111940D01*
X140041496Y-87111940D02*
X140041496Y-87254797D01*
X140041496Y-87254797D02*
X139993877Y-87350035D01*
X139993877Y-87350035D02*
X139946258Y-87397654D01*
X139946258Y-87397654D02*
X139851020Y-87445273D01*
X139851020Y-87445273D02*
X139470068Y-87445273D01*
X140422449Y-87016702D02*
X140470068Y-86969083D01*
X140470068Y-86969083D02*
X140565306Y-86921464D01*
X140565306Y-86921464D02*
X140803401Y-86921464D01*
X140803401Y-86921464D02*
X140898639Y-86969083D01*
X140898639Y-86969083D02*
X140946258Y-87016702D01*
X140946258Y-87016702D02*
X140993877Y-87111940D01*
X140993877Y-87111940D02*
X140993877Y-87207178D01*
X140993877Y-87207178D02*
X140946258Y-87350035D01*
X140946258Y-87350035D02*
X140374830Y-87921464D01*
X140374830Y-87921464D02*
X140993877Y-87921464D01*
X141264469Y-108531711D02*
X141407326Y-108579330D01*
X141407326Y-108579330D02*
X141645421Y-108579330D01*
X141645421Y-108579330D02*
X141740659Y-108531711D01*
X141740659Y-108531711D02*
X141788278Y-108484091D01*
X141788278Y-108484091D02*
X141835897Y-108388853D01*
X141835897Y-108388853D02*
X141835897Y-108293615D01*
X141835897Y-108293615D02*
X141788278Y-108198377D01*
X141788278Y-108198377D02*
X141740659Y-108150758D01*
X141740659Y-108150758D02*
X141645421Y-108103139D01*
X141645421Y-108103139D02*
X141454945Y-108055520D01*
X141454945Y-108055520D02*
X141359707Y-108007901D01*
X141359707Y-108007901D02*
X141312088Y-107960282D01*
X141312088Y-107960282D02*
X141264469Y-107865044D01*
X141264469Y-107865044D02*
X141264469Y-107769806D01*
X141264469Y-107769806D02*
X141312088Y-107674568D01*
X141312088Y-107674568D02*
X141359707Y-107626949D01*
X141359707Y-107626949D02*
X141454945Y-107579330D01*
X141454945Y-107579330D02*
X141693040Y-107579330D01*
X141693040Y-107579330D02*
X141835897Y-107626949D01*
X142169231Y-107579330D02*
X142407326Y-108579330D01*
X142407326Y-108579330D02*
X142597802Y-107865044D01*
X142597802Y-107865044D02*
X142788278Y-108579330D01*
X142788278Y-108579330D02*
X143026374Y-107579330D01*
X143931135Y-108579330D02*
X143359707Y-108579330D01*
X143645421Y-108579330D02*
X143645421Y-107579330D01*
X143645421Y-107579330D02*
X143550183Y-107722187D01*
X143550183Y-107722187D02*
X143454945Y-107817425D01*
X143454945Y-107817425D02*
X143359707Y-107865044D01*
X127378367Y-88134507D02*
X127330748Y-88182127D01*
X127330748Y-88182127D02*
X127187891Y-88229746D01*
X127187891Y-88229746D02*
X127092653Y-88229746D01*
X127092653Y-88229746D02*
X126949796Y-88182127D01*
X126949796Y-88182127D02*
X126854558Y-88086888D01*
X126854558Y-88086888D02*
X126806939Y-87991650D01*
X126806939Y-87991650D02*
X126759320Y-87801174D01*
X126759320Y-87801174D02*
X126759320Y-87658317D01*
X126759320Y-87658317D02*
X126806939Y-87467841D01*
X126806939Y-87467841D02*
X126854558Y-87372603D01*
X126854558Y-87372603D02*
X126949796Y-87277365D01*
X126949796Y-87277365D02*
X127092653Y-87229746D01*
X127092653Y-87229746D02*
X127187891Y-87229746D01*
X127187891Y-87229746D02*
X127330748Y-87277365D01*
X127330748Y-87277365D02*
X127378367Y-87324984D01*
X128235510Y-87563079D02*
X128235510Y-88229746D01*
X127997415Y-87182127D02*
X127759320Y-87896412D01*
X127759320Y-87896412D02*
X128378367Y-87896412D01*
X156037561Y-88632088D02*
X156037561Y-89346373D01*
X156037561Y-89346373D02*
X155989942Y-89489230D01*
X155989942Y-89489230D02*
X155894704Y-89584469D01*
X155894704Y-89584469D02*
X155751847Y-89632088D01*
X155751847Y-89632088D02*
X155656609Y-89632088D01*
X156513752Y-89632088D02*
X156513752Y-88632088D01*
X156513752Y-88632088D02*
X156894704Y-88632088D01*
X156894704Y-88632088D02*
X156989942Y-88679707D01*
X156989942Y-88679707D02*
X157037561Y-88727326D01*
X157037561Y-88727326D02*
X157085180Y-88822564D01*
X157085180Y-88822564D02*
X157085180Y-88965421D01*
X157085180Y-88965421D02*
X157037561Y-89060659D01*
X157037561Y-89060659D02*
X156989942Y-89108278D01*
X156989942Y-89108278D02*
X156894704Y-89155897D01*
X156894704Y-89155897D02*
X156513752Y-89155897D01*
X158037561Y-89632088D02*
X157466133Y-89632088D01*
X157751847Y-89632088D02*
X157751847Y-88632088D01*
X157751847Y-88632088D02*
X157656609Y-88774945D01*
X157656609Y-88774945D02*
X157561371Y-88870183D01*
X157561371Y-88870183D02*
X157466133Y-88917802D01*
X135299123Y-106436039D02*
X134299123Y-106436039D01*
X134299123Y-106436039D02*
X134299123Y-106197944D01*
X134299123Y-106197944D02*
X134346742Y-106055087D01*
X134346742Y-106055087D02*
X134441980Y-105959849D01*
X134441980Y-105959849D02*
X134537218Y-105912230D01*
X134537218Y-105912230D02*
X134727694Y-105864611D01*
X134727694Y-105864611D02*
X134870551Y-105864611D01*
X134870551Y-105864611D02*
X135061027Y-105912230D01*
X135061027Y-105912230D02*
X135156265Y-105959849D01*
X135156265Y-105959849D02*
X135251504Y-106055087D01*
X135251504Y-106055087D02*
X135299123Y-106197944D01*
X135299123Y-106197944D02*
X135299123Y-106436039D01*
X134632456Y-105007468D02*
X135299123Y-105007468D01*
X134251504Y-105245563D02*
X134965789Y-105483658D01*
X134965789Y-105483658D02*
X134965789Y-104864611D01*
X157363967Y-100502271D02*
X156887776Y-100835604D01*
X157363967Y-101073699D02*
X156363967Y-101073699D01*
X156363967Y-101073699D02*
X156363967Y-100692747D01*
X156363967Y-100692747D02*
X156411586Y-100597509D01*
X156411586Y-100597509D02*
X156459205Y-100549890D01*
X156459205Y-100549890D02*
X156554443Y-100502271D01*
X156554443Y-100502271D02*
X156697300Y-100502271D01*
X156697300Y-100502271D02*
X156792538Y-100549890D01*
X156792538Y-100549890D02*
X156840157Y-100597509D01*
X156840157Y-100597509D02*
X156887776Y-100692747D01*
X156887776Y-100692747D02*
X156887776Y-101073699D01*
X156697300Y-99645128D02*
X157363967Y-99645128D01*
X156316348Y-99883223D02*
X157030633Y-100121318D01*
X157030633Y-100121318D02*
X157030633Y-99502271D01*
X135344819Y-98557509D02*
X136154342Y-98557509D01*
X136154342Y-98557509D02*
X136249580Y-98509890D01*
X136249580Y-98509890D02*
X136297200Y-98462271D01*
X136297200Y-98462271D02*
X136344819Y-98367033D01*
X136344819Y-98367033D02*
X136344819Y-98176557D01*
X136344819Y-98176557D02*
X136297200Y-98081319D01*
X136297200Y-98081319D02*
X136249580Y-98033700D01*
X136249580Y-98033700D02*
X136154342Y-97986081D01*
X136154342Y-97986081D02*
X135344819Y-97986081D01*
X136344819Y-96986081D02*
X136344819Y-97557509D01*
X136344819Y-97271795D02*
X135344819Y-97271795D01*
X135344819Y-97271795D02*
X135487676Y-97367033D01*
X135487676Y-97367033D02*
X135582914Y-97462271D01*
X135582914Y-97462271D02*
X135630533Y-97557509D01*
X151566666Y-101165424D02*
X151566666Y-101879709D01*
X151566666Y-101879709D02*
X151519047Y-102022566D01*
X151519047Y-102022566D02*
X151423809Y-102117805D01*
X151423809Y-102117805D02*
X151280952Y-102165424D01*
X151280952Y-102165424D02*
X151185714Y-102165424D01*
X152042857Y-102165424D02*
X152042857Y-101165424D01*
X152042857Y-101165424D02*
X152423809Y-101165424D01*
X152423809Y-101165424D02*
X152519047Y-101213043D01*
X152519047Y-101213043D02*
X152566666Y-101260662D01*
X152566666Y-101260662D02*
X152614285Y-101355900D01*
X152614285Y-101355900D02*
X152614285Y-101498757D01*
X152614285Y-101498757D02*
X152566666Y-101593995D01*
X152566666Y-101593995D02*
X152519047Y-101641614D01*
X152519047Y-101641614D02*
X152423809Y-101689233D01*
X152423809Y-101689233D02*
X152042857Y-101689233D01*
X152995238Y-101260662D02*
X153042857Y-101213043D01*
X153042857Y-101213043D02*
X153138095Y-101165424D01*
X153138095Y-101165424D02*
X153376190Y-101165424D01*
X153376190Y-101165424D02*
X153471428Y-101213043D01*
X153471428Y-101213043D02*
X153519047Y-101260662D01*
X153519047Y-101260662D02*
X153566666Y-101355900D01*
X153566666Y-101355900D02*
X153566666Y-101451138D01*
X153566666Y-101451138D02*
X153519047Y-101593995D01*
X153519047Y-101593995D02*
X152947619Y-102165424D01*
X152947619Y-102165424D02*
X153566666Y-102165424D01*
X135355927Y-91039536D02*
X135403547Y-91087155D01*
X135403547Y-91087155D02*
X135451166Y-91230012D01*
X135451166Y-91230012D02*
X135451166Y-91325250D01*
X135451166Y-91325250D02*
X135403547Y-91468107D01*
X135403547Y-91468107D02*
X135308308Y-91563345D01*
X135308308Y-91563345D02*
X135213070Y-91610964D01*
X135213070Y-91610964D02*
X135022594Y-91658583D01*
X135022594Y-91658583D02*
X134879737Y-91658583D01*
X134879737Y-91658583D02*
X134689261Y-91610964D01*
X134689261Y-91610964D02*
X134594023Y-91563345D01*
X134594023Y-91563345D02*
X134498785Y-91468107D01*
X134498785Y-91468107D02*
X134451166Y-91325250D01*
X134451166Y-91325250D02*
X134451166Y-91230012D01*
X134451166Y-91230012D02*
X134498785Y-91087155D01*
X134498785Y-91087155D02*
X134546404Y-91039536D01*
X134451166Y-90706202D02*
X134451166Y-90087155D01*
X134451166Y-90087155D02*
X134832118Y-90420488D01*
X134832118Y-90420488D02*
X134832118Y-90277631D01*
X134832118Y-90277631D02*
X134879737Y-90182393D01*
X134879737Y-90182393D02*
X134927356Y-90134774D01*
X134927356Y-90134774D02*
X135022594Y-90087155D01*
X135022594Y-90087155D02*
X135260689Y-90087155D01*
X135260689Y-90087155D02*
X135355927Y-90134774D01*
X135355927Y-90134774D02*
X135403547Y-90182393D01*
X135403547Y-90182393D02*
X135451166Y-90277631D01*
X135451166Y-90277631D02*
X135451166Y-90563345D01*
X135451166Y-90563345D02*
X135403547Y-90658583D01*
X135403547Y-90658583D02*
X135355927Y-90706202D01*
X144755516Y-88740106D02*
X144755516Y-87740106D01*
X144755516Y-87740106D02*
X144993611Y-87740106D01*
X144993611Y-87740106D02*
X145136468Y-87787725D01*
X145136468Y-87787725D02*
X145231706Y-87882963D01*
X145231706Y-87882963D02*
X145279325Y-87978201D01*
X145279325Y-87978201D02*
X145326944Y-88168677D01*
X145326944Y-88168677D02*
X145326944Y-88311534D01*
X145326944Y-88311534D02*
X145279325Y-88502010D01*
X145279325Y-88502010D02*
X145231706Y-88597248D01*
X145231706Y-88597248D02*
X145136468Y-88692487D01*
X145136468Y-88692487D02*
X144993611Y-88740106D01*
X144993611Y-88740106D02*
X144755516Y-88740106D01*
X145707897Y-87835344D02*
X145755516Y-87787725D01*
X145755516Y-87787725D02*
X145850754Y-87740106D01*
X145850754Y-87740106D02*
X146088849Y-87740106D01*
X146088849Y-87740106D02*
X146184087Y-87787725D01*
X146184087Y-87787725D02*
X146231706Y-87835344D01*
X146231706Y-87835344D02*
X146279325Y-87930582D01*
X146279325Y-87930582D02*
X146279325Y-88025820D01*
X146279325Y-88025820D02*
X146231706Y-88168677D01*
X146231706Y-88168677D02*
X145660278Y-88740106D01*
X145660278Y-88740106D02*
X146279325Y-88740106D01*
D11*
%TO.C,J2*%
X163767148Y-104272605D02*
X172022148Y-104272605D01*
X163767148Y-88778605D02*
X163767148Y-104272605D01*
X172022148Y-88778605D02*
X163767148Y-88778605D01*
X161354148Y-89286605D02*
X160973148Y-88778605D01*
X161735148Y-88778605D01*
X161354148Y-89286605D01*
G36*
X161354148Y-89286605D02*
G01*
X160973148Y-88778605D01*
X161735148Y-88778605D01*
X161354148Y-89286605D01*
G37*
D12*
%TO.C,C1*%
X136379528Y-106697945D02*
X136379528Y-104697945D01*
X138519528Y-104697945D02*
X138519528Y-106697945D01*
%TO.C,C2*%
X139736467Y-93969194D02*
X137736467Y-93969194D01*
X137736467Y-91829194D02*
X139736467Y-91829194D01*
%TO.C,R3*%
X130558966Y-108089280D02*
X128558966Y-108089280D01*
X128558966Y-105949280D02*
X130558966Y-105949280D01*
%TO.C,R1*%
X141164115Y-90959293D02*
X139164115Y-90959293D01*
X139164115Y-88819293D02*
X141164115Y-88819293D01*
D13*
%TO.C,SW2*%
X143493590Y-97708767D02*
X144573590Y-97708767D01*
X151413590Y-97708767D02*
X152493590Y-97708767D01*
X152493590Y-97708767D02*
X152493590Y-94108767D01*
X143493590Y-94108767D02*
X143493590Y-97708767D01*
X144573590Y-94108767D02*
X143493590Y-94108767D01*
X152493590Y-94108767D02*
X151413590Y-94108767D01*
D14*
X151933590Y-93158767D02*
G75*
G02*
X151733590Y-93158767I-100000J0D01*
G01*
X151733590Y-93158767D02*
G75*
G02*
X151933590Y-93158767I100000J0D01*
G01*
D12*
%TO.C,D5*%
X152825790Y-94548133D02*
X152825790Y-98048133D01*
X155325790Y-94548133D02*
X155325790Y-98048133D01*
%TO.C,U2*%
X130467631Y-91570605D02*
X131397631Y-91570605D01*
X130467631Y-91570605D02*
X130467631Y-90110605D01*
X133627631Y-91570605D02*
X132697631Y-91570605D01*
X133627631Y-91570605D02*
X133627631Y-89410605D01*
%TO.C,D1*%
X146579148Y-91466950D02*
X144379148Y-91466950D01*
X146579148Y-89516950D02*
X144379148Y-89516950D01*
%TO.C,D3*%
X131084641Y-104882261D02*
X127584641Y-104882261D01*
X131084641Y-102382261D02*
X127584641Y-102382261D01*
%TO.C,R2*%
X141208163Y-88536645D02*
X139208163Y-88536645D01*
X139208163Y-86396645D02*
X141208163Y-86396645D01*
%TO.C,SW1*%
X146497802Y-108354511D02*
X146497802Y-105054511D01*
X138697802Y-105054511D02*
X138697802Y-108354511D01*
X138697802Y-105054511D02*
X139297802Y-105054511D01*
X146497802Y-105054511D02*
X145897802Y-105054511D01*
%TO.C,C4*%
X128545034Y-88844927D02*
X126545034Y-88844927D01*
X126545034Y-86704927D02*
X128545034Y-86704927D01*
%TO.C,JP1*%
X155839148Y-93715605D02*
X155839148Y-91715605D01*
X157979148Y-91715605D02*
X157979148Y-93715605D01*
%TO.C,D4*%
X133894304Y-106797945D02*
X133894304Y-104597945D01*
X135844304Y-106797945D02*
X135844304Y-104597945D01*
%TO.C,R4*%
X155839148Y-101335605D02*
X155839148Y-99335605D01*
X157979148Y-99335605D02*
X157979148Y-101335605D01*
%TO.C,U1*%
X130830000Y-98020001D02*
X130830000Y-99970001D01*
X130830000Y-98020001D02*
X130830000Y-96070001D01*
X140950000Y-98020001D02*
X140950000Y-99970001D01*
X140950000Y-98020001D02*
X140950000Y-96070001D01*
X141225000Y-95560001D02*
X140895000Y-95320001D01*
X141225000Y-95080001D01*
X141225000Y-95560001D01*
G36*
X141225000Y-95560001D02*
G01*
X140895000Y-95320001D01*
X141225000Y-95080001D01*
X141225000Y-95560001D01*
G37*
%TO.C,JP2*%
X153164148Y-104510605D02*
X151764148Y-104510605D01*
X151064148Y-103810605D02*
X151064148Y-103210605D01*
X153864148Y-103210605D02*
X153864148Y-103810605D01*
X151764148Y-102510605D02*
X153164148Y-102510605D01*
X151764148Y-104510605D02*
G75*
G02*
X151064148Y-103810605I-1J699999D01*
G01*
X153864148Y-103810605D02*
G75*
G02*
X153164148Y-104510605I-700000J0D01*
G01*
X151064148Y-103210605D02*
G75*
G02*
X151764148Y-102510605I699999J1D01*
G01*
X153164148Y-102510605D02*
G75*
G02*
X153864148Y-103210605I0J-700000D01*
G01*
%TO.C,C3*%
X133926347Y-91872870D02*
X133926347Y-89872870D01*
X136066347Y-89872870D02*
X136066347Y-91872870D01*
%TO.C,D2*%
X146593611Y-89235287D02*
X144393611Y-89235287D01*
X146593611Y-87285287D02*
X144393611Y-87285287D01*
%TD*%
M02*
